HIERARCHY
ROOT root
{
  OFFSET 0 90.5966 0
  CHANNELS 6 Xposition Yposition Zposition Zrotation Xrotation Yrotation
  JOINT torso_1
  {
    OFFSET 0 4.93189 -1.1181
    CHANNELS 6 Xposition Yposition Zposition Zrotation Xrotation Yrotation
    JOINT torso_2
    {
      OFFSET 0 5.45428 1.04046
      CHANNELS 6 Xposition Yposition Zposition Zrotation Xrotation Yrotation
      JOINT torso_3
      {
        OFFSET -9.96389e-18 5.81666 0.111686
        CHANNELS 6 Xposition Yposition Zposition Zrotation Xrotation Yrotation
        JOINT torso_4
        {
          OFFSET -1.07264e-17 6.3178 -0.430704
          CHANNELS 6 Xposition Yposition Zposition Zrotation Xrotation Yrotation
          JOINT torso_5
          {
            OFFSET -1.91593e-17 7.38567 -1.4624
            CHANNELS 6 Xposition Yposition Zposition Zrotation Xrotation Yrotation
            JOINT torso_6
            {
              OFFSET -2.45986e-17 9.22288 -0.888062
              CHANNELS 6 Xposition Yposition Zposition Zrotation Xrotation Yrotation
              JOINT torso_7
              {
                OFFSET -2.82008e-17 10.2464 1.53133
                CHANNELS 6 Xposition Yposition Zposition Zrotation Xrotation Yrotation
                JOINT neck_1
                {
                  OFFSET -1.25459e-17 4.64811 0.694664
                  CHANNELS 6 Xposition Yposition Zposition Zrotation Xrotation Yrotation
                  JOINT neck_2
                  {
                    OFFSET -1.75924e-17 4.68175 0.4096
                    CHANNELS 6 Xposition Yposition Zposition Zrotation Xrotation Yrotation
                    JOINT head
                    {
                      OFFSET -1.9515e-17 4.6908 0.74295
                      CHANNELS 6 Xposition Yposition Zposition Zrotation Xrotation Yrotation
                      End Site
                      {
                        OFFSET 0 0.1 0
                      }
                    }
                  }
                }
                JOINT l_shoulder
                {
                  OFFSET 1.19736 -7.38744 7.31601
                  CHANNELS 6 Xposition Yposition Zposition Zrotation Xrotation Yrotation
                  JOINT l_up_arm
                  {
                    OFFSET 12.5803 3.15559 -3.17425
                    CHANNELS 6 Xposition Yposition Zposition Zrotation Xrotation Yrotation
                    JOINT l_low_arm
                    {
                      OFFSET 28.3639 0.0580795 0.133078
                      CHANNELS 6 Xposition Yposition Zposition Zrotation Xrotation Yrotation
                      JOINT l_hand
                      {
                        OFFSET 23.5335 0.0481878 0.110415
                        CHANNELS 6 Xposition Yposition Zposition Zrotation Xrotation Yrotation
                        End Site
                        {
                          OFFSET 0.1 0 0
                        }
                      }
                    }
                  }
                }
                JOINT r_shoulder
                {
                  OFFSET -1.19736 -7.38743 7.31591
                  CHANNELS 6 Xposition Yposition Zposition Zrotation Xrotation Yrotation
                  JOINT r_up_arm
                  {
                    OFFSET -12.5803 3.15559 -3.17425
                    CHANNELS 6 Xposition Yposition Zposition Zrotation Xrotation Yrotation
                    JOINT r_low_arm
                    {
                      OFFSET -28.3639 0.0580795 0.133078
                      CHANNELS 6 Xposition Yposition Zposition Zrotation Xrotation Yrotation
                      JOINT r_hand
                      {
                        OFFSET -23.5335 0.0481876 0.110415
                        CHANNELS 6 Xposition Yposition Zposition Zrotation Xrotation Yrotation
                        End Site
                        {
                          OFFSET -0.1 0 0
                        }
                      }
                    }
                  }
                }
              }
            }
          }
        }
      }
    }
  }
  JOINT l_up_leg
  {
    OFFSET 8.96978 -4.08401 1.97395
    CHANNELS 6 Xposition Yposition Zposition Zrotation Xrotation Yrotation
    JOINT l_low_leg
    {
      OFFSET -0.827718 -37.6515 -0.63625
      CHANNELS 6 Xposition Yposition Zposition Zrotation Xrotation Yrotation
      JOINT l_foot
      {
        OFFSET -2.25899 -39.2341 -5.87393
        CHANNELS 6 Xposition Yposition Zposition Zrotation Xrotation Yrotation
        JOINT l_toes
        {
          OFFSET 0.756579 -9.59872 12.1348
          CHANNELS 6 Xposition Yposition Zposition Zrotation Xrotation Yrotation
          End Site
          {
            OFFSET 0 0 0.1
          }
        }
      }
    }
  }
  JOINT r_up_leg
  {
    OFFSET -8.96978 -4.08401 1.97395
    CHANNELS 6 Xposition Yposition Zposition Zrotation Xrotation Yrotation
    JOINT r_low_leg
    {
      OFFSET 0.827718 -37.6515 -0.63625
      CHANNELS 6 Xposition Yposition Zposition Zrotation Xrotation Yrotation
      JOINT r_foot
      {
        OFFSET 2.25899 -39.2341 -5.87393
        CHANNELS 6 Xposition Yposition Zposition Zrotation Xrotation Yrotation
        JOINT r_toes
        {
          OFFSET -0.756579 -9.59872 12.1348
          CHANNELS 6 Xposition Yposition Zposition Zrotation Xrotation Yrotation
          End Site
          {
            OFFSET 0 0 0.1
          }
        }
      }
    }
  }
}
MOTION
Frames: 7
Frame Time: 0.020000
0 90.5966 0 -0 0 -0 0 4.93189 -1.1181 -0 0 -0 0 5.45428 1.04046 -0 0 -0 -9.96389e-18 5.81666 0.111686 -0 0 -0 -1.07264e-17 6.3178 -0.430704 -0 0 -0 -1.91593e-17 7.38567 -1.4624 -0 0 -0 -2.45986e-17 9.22288 -0.888062 -0 0 -0 -2.82008e-17 10.2464 1.53133 -0 0 -0 -1.25459e-17 4.64811 0.694664 -0 0 -0 -1.75924e-17 4.68175 0.4096 -0 0 -0 -1.9515e-17 4.6908 0.74295 -0 0 -0 1.19736 -7.38744 7.31601 -0 0 -0 12.5803 3.15559 -3.17425 -0 0 -0 28.3639 0.0580795 0.133078 -0 0 -0 23.5335 0.0481878 0.110415 -0 0 -0 -1.19736 -7.38743 7.31591 -0 0 -0 -12.5803 3.15559 -3.17425 -0 0 -0 -28.3639 0.0580795 0.133078 -0 0 -0 -23.5335 0.0481876 0.110415 -0 0 -0 8.96978 -4.08401 1.97395 -0 0 -0 -0.827718 -37.6515 -0.63625 -0 0 -0 -2.25899 -39.2341 -5.87393 -0 0 -0 0.756579 -9.59872 12.1348 -0 0 -0 -8.96978 -4.08401 1.97395 -0 0 -0 0.827718 -37.6515 -0.63625 -0 0 -0 2.25899 -39.2341 -5.87393 -0 0 -0 -0.756579 -9.59872 12.1348 -0 0 -0 
7.90637 90.3821 -76.9039 2.52955 3.25909 -9.64943 0 4.93189 -1.1181 -0.975204 -1.89513 1.58956 0 5.45428 1.04046 -0.78961 -1.36501 1.53203 -9.96389e-18 5.81666 0.111686 -0.633031 -0.418767 1.42101 -1.07264e-17 6.3178 -0.430704 -0.533053 1.12807 1.37854 -1.91593e-17 7.38567 -1.4624 -0.117695 1.14672 1.35421 -2.45986e-17 9.22288 -0.888062 0.433696 1.13094 1.35713 -2.82008e-17 10.2464 1.53133 -0.0260799 0.548427 0.340009 -1.25459e-17 4.64811 0.694664 0.0824044 3.03825 -10.6699 -1.75924e-17 4.68175 0.4096 1.11709 -6.6688 -5.04304 -1.9515e-17 4.6908 0.74295 -1.62758 -5.43844 1.41884 1.19736 -7.38744 7.31601 22.1303 2.33589 7.15868 12.5803 3.15559 -3.17425 -20.1153 -19.0391 33.2144 28.3639 0.0580795 0.133078 2.82232 -0.324901 -13.7232 23.5335 0.0481878 0.110415 -4.40388 1.69659 5.71185 -1.19736 -7.38743 7.31591 -12.7098 2.32581 -7.00788 -12.5803 3.15559 -3.17425 18.2741 -18.1458 -28.4914 -28.3639 0.0580795 0.133078 -1.27112 -0.0614438 6.13547 -23.5335 0.0481876 0.110415 -1.50506 -18.2242 7.71923e-05 8.96978 -4.08401 1.97395 3.93626 -3.6356 -16.9576 -0.827718 -37.6515 -0.63625 0.0465853 -0.173813 0.00310461 -2.25899 -39.2341 -5.87393 -5.85242 -0.32397 15.6761 0.756579 -9.59872 12.1348 2.48481e-17 -7.95139e-16 1.2424e-17 -8.96978 -4.08401 1.97395 -9.55757 -1.66708 10.1648 0.827718 -37.6515 -0.63625 -0.700106 -2.60642 -0.0614363 2.25899 -39.2341 -5.87393 6.43497 -1.29 -15.6808 -0.756579 -9.59872 12.1348 -8.67765e-16 -5.506e-16 -1.27301e-14 
7.90741 90.3808 -76.9042 2.53834 3.25331 -9.65051 0 4.93189 -1.1181 -0.980588 -1.88843 1.59041 0 5.45428 1.04046 -0.794497 -1.36048 1.53206 -9.96389e-18 5.81666 0.111686 -0.636879 -0.416408 1.42118 -1.07264e-17 6.3178 -0.430704 -0.535867 1.12645 1.37877 -1.91593e-17 7.38567 -1.4624 -0.119167 1.14217 1.35483 -2.45986e-17 9.22288 -0.888062 0.433786 1.12405 1.35777 -2.82008e-17 10.2464 1.53133 -0.0259071 0.548992 0.339762 -1.25459e-17 4.64811 0.694664 0.0839075 3.03992 -10.6651 -1.75924e-17 4.68175 0.4096 1.11963 -6.6706 -5.0406 -1.9515e-17 4.6908 0.74295 -1.63166 -5.44667 1.42307 1.19736 -7.38744 7.31601 22.1357 2.3377 7.15569 12.5803 3.15559 -3.17425 -20.1297 -19.0339 33.1997 28.3639 0.0580795 0.133078 2.82187 -0.324794 -13.721 23.5335 0.0481878 0.110415 -4.39064 1.7308 5.7185 -1.19736 -7.38743 7.31591 -12.7186 2.33127 -7.00655 -12.5803 3.15559 -3.17425 18.3012 -18.1338 -28.4911 -28.3639 0.0580795 0.133078 -1.27076 -0.0614066 6.13371 -23.5335 0.0481876 0.110415 -1.51408 -18.2251 -0.00813839 8.96978 -4.08401 1.97395 3.92685 -3.62589 -16.9563 -0.827718 -37.6515 -0.63625 0.0484421 -0.18074 0.00323127 -2.25899 -39.2341 -5.87393 -5.85877 -0.323408 15.6757 0.756579 -9.59872 12.1348 1.51006e-16 -7.91196e-16 8.4816e-18 -8.96978 -4.08401 1.97395 -9.56905 -1.6649 10.1717 0.827718 -37.6515 -0.63625 -0.699774 -2.60519 -0.0613997 2.25899 -39.2341 -5.87393 6.4366 -1.3007 -15.6807 -0.756579 -9.59872 12.1348 -5.96354e-16 -5.59082e-16 -1.27471e-14 
7.90813 90.3783 -76.9046 2.54662 3.25875 -9.65457 0 4.93189 -1.1181 -0.985807 -1.88325 1.59163 0 5.45428 1.04046 -0.799304 -1.35751 1.53268 -9.96389e-18 5.81666 0.111686 -0.640682 -0.415709 1.4219 -1.07264e-17 6.3178 -0.430704 -0.538703 1.1231 1.37949 -1.91593e-17 7.38567 -1.4624 -0.120577 1.13594 1.35586 -2.45986e-17 9.22288 -0.888062 0.433907 1.11527 1.35875 -2.82008e-17 10.2464 1.53133 -0.0256833 0.549506 0.339638 -1.25459e-17 4.64811 0.694664 0.0829733 3.03095 -10.6624 -1.75924e-17 4.68175 0.4096 1.12291 -6.67558 -5.03931 -1.9515e-17 4.6908 0.74295 -1.62157 -5.45205 1.42777 1.19736 -7.38744 7.31601 22.1434 2.34303 7.15132 12.5803 3.15559 -3.17425 -20.1389 -19.0325 33.1977 28.3639 0.0580795 0.133078 2.82082 -0.324543 -13.7158 23.5335 0.0481878 0.110415 -4.39774 1.73172 5.71656 -1.19736 -7.38743 7.31591 -12.7239 2.33903 -7.00469 -12.5803 3.15559 -3.17425 18.3281 -18.1283 -28.4945 -28.3639 0.0580795 0.133078 -1.27043 -0.0613728 6.13211 -23.5335 0.0481876 0.110415 -1.50848 -18.2325 -0.0100725 8.96978 -4.08401 1.97395 3.92008 -3.62714 -16.9454 -0.827718 -37.6515 -0.63625 0.0496961 -0.185418 0.00331693 -2.25899 -39.2341 -5.87393 -5.86242 -0.331555 15.6751 0.756579 -9.59872 12.1348 2.96259e-16 -7.86657e-16 3.94244e-18 -8.96978 -4.08401 1.97395 -9.57664 -1.67225 10.1738 0.827718 -37.6515 -0.63625 -0.700323 -2.60723 -0.0614603 2.25899 -39.2341 -5.87393 6.43298 -1.31388 -15.6799 -0.756579 -9.59872 12.1348 -5.96354e-16 -5.59082e-16 -1.27471e-14 
7.90812 90.3765 -76.905 2.5489 3.25588 -9.66553 0 4.93189 -1.1181 -0.990419 -1.87955 1.59347 0 5.45428 1.04046 -0.803574 -1.3554 1.53398 -9.96389e-18 5.81666 0.111686 -0.644072 -0.414671 1.42324 -1.07264e-17 6.3178 -0.430704 -0.541198 1.12174 1.38081 -1.91593e-17 7.38567 -1.4624 -0.121639 1.13293 1.35745 -2.45986e-17 9.22288 -0.888062 0.434395 1.11088 1.36013 -2.82008e-17 10.2464 1.53133 -0.0254591 0.549628 0.339265 -1.25459e-17 4.64811 0.694664 0.0825626 3.01985 -10.6587 -1.75924e-17 4.68175 0.4096 1.13003 -6.6853 -5.03758 -1.9515e-17 4.6908 0.74295 -1.60298 -5.45374 1.43526 1.19736 -7.38744 7.31601 22.1467 2.34835 7.14542 12.5803 3.15559 -3.17425 -20.1436 -19.0287 33.2004 28.3639 0.0580795 0.133078 2.81843 -0.323974 -13.7039 23.5335 0.0481878 0.110415 -4.40892 1.70506 5.71544 -1.19736 -7.38743 7.31591 -12.7281 2.34568 -7.00333 -12.5803 3.15559 -3.17425 18.3644 -18.1116 -28.4892 -28.3639 0.0580795 0.133078 -1.26998 -0.0613272 6.12994 -23.5335 0.0481876 0.110415 -1.4874 -18.2971 -0.00245841 8.96978 -4.08401 1.97395 3.91813 -3.61752 -16.9298 -0.827718 -37.6515 -0.63625 0.0512948 -0.191383 0.0034263 -2.25899 -39.2341 -5.87393 -5.86134 -0.337594 15.6748 0.756579 -9.59872 12.1348 2.48481e-17 -7.95139e-16 1.2424e-17 -8.96978 -4.08401 1.97395 -9.58043 -1.67403 10.1866 0.827718 -37.6515 -0.63625 -0.700278 -2.60706 -0.0614553 2.25899 -39.2341 -5.87393 6.43792 -1.3227 -15.6791 -0.756579 -9.59872 12.1348 -5.96354e-16 -5.59082e-16 -1.27471e-14 
7.90833 90.3755 -76.9054 2.55539 3.24426 -9.67543 0 4.93189 -1.1181 -0.996895 -1.87413 1.59493 0 5.45428 1.04046 -0.809406 -1.35144 1.53446 -9.96389e-18 5.81666 0.111686 -0.648603 -0.411612 1.42381 -1.07264e-17 6.3178 -0.430704 -0.544365 1.12228 1.3813 -1.91593e-17 7.38567 -1.4624 -0.123056 1.13193 1.35838 -2.45986e-17 9.22288 -0.888062 0.434801 1.10871 1.36086 -2.82008e-17 10.2464 1.53133 -0.0252774 0.549737 0.338699 -1.25459e-17 4.64811 0.694664 0.0832433 3.01445 -10.6639 -1.75924e-17 4.68175 0.4096 1.13575 -6.69549 -5.04011 -1.9515e-17 4.6908 0.74295 -1.58425 -5.45706 1.45043 1.19736 -7.38744 7.31601 22.1429 2.35354 7.13897 12.5803 3.15559 -3.17425 -20.1602 -19.0133 33.1982 28.3639 0.0580795 0.133078 2.81572 -0.323328 -13.6905 23.5335 0.0481878 0.110415 -4.40387 1.68502 5.72499 -1.19736 -7.38743 7.31591 -12.7287 2.35048 -7.0003 -12.5803 3.15559 -3.17425 18.4125 -18.0901 -28.4796 -28.3639 0.0580795 0.133078 -1.26932 -0.0612594 6.12673 -23.5335 0.0481876 0.110415 -1.47221 -18.3735 0.00628387 8.96978 -4.08401 1.97395 3.90987 -3.59841 -16.9138 -0.827718 -37.6515 -0.63625 0.0542035 -0.202234 0.0036257 -2.25899 -39.2341 -5.87393 -5.86191 -0.334055 15.6747 0.756579 -9.59872 12.1348 2.48481e-17 -7.95139e-16 1.2424e-17 -8.96978 -4.08401 1.97395 -9.59091 -1.66753 10.2041 0.827718 -37.6515 -0.63625 -0.700353 -2.60734 -0.0614636 2.25899 -39.2341 -5.87393 6.44481 -1.33142 -15.6784 -0.756579 -9.59872 12.1348 -7.22512e-16 -5.55139e-16 -1.27392e-14 
7.90873 90.3738 -76.906 2.55458 3.23814 -9.68038 0 4.93189 -1.1181 -1.00095 -1.86947 1.59576 0 5.45428 1.04046 -0.813158 -1.34756 1.53466 -9.96389e-18 5.81666 0.111686 -0.651531 -0.408126 1.42411 -1.07264e-17 6.3178 -0.430704 -0.546355 1.12461 1.38156 -1.91593e-17 7.38567 -1.4624 -0.123968 1.13353 1.35893 -2.45986e-17 9.22288 -0.888062 0.435042 1.10998 1.36112 -2.82008e-17 10.2464 1.53133 -0.0250284 0.54964 0.338292 -1.25459e-17 4.64811 0.694664 0.0847921 3.01362 -10.6612 -1.75924e-17 4.68175 0.4096 1.14427 -6.70194 -5.03874 -1.9515e-17 4.6908 0.74295 -1.567 -5.46117 1.45815 1.19736 -7.38744 7.31601 22.1369 2.35625 7.13565 12.5803 3.15559 -3.17425 -20.179 -19.0034 33.2 28.3639 0.0580795 0.133078 2.81434 -0.322998 -13.6837 23.5335 0.0481878 0.110415 -4.39424 1.68354 5.73498 -1.19736 -7.38743 7.31591 -12.7228 2.35202 -6.9973 -12.5803 3.15559 -3.17425 18.4492 -18.0793 -28.4718 -28.3639 0.0580795 0.133078 -1.2687 -0.0611967 6.12375 -23.5335 0.0481876 0.110415 -1.46721 -18.3841 -0.00101525 8.96978 -4.08401 1.97395 3.91056 -3.5829 -16.9032 -0.827718 -37.6515 -0.63625 0.0573391 -0.213931 0.00384127 -2.25899 -39.2341 -5.87393 -5.86613 -0.339654 15.6743 0.756579 -9.59872 12.1348 2.48481e-17 -7.95139e-16 1.2424e-17 -8.96978 -4.08401 1.97395 -9.59238 -1.66549 10.2139 0.827718 -37.6515 -0.63625 -0.69977 -2.60518 -0.0613993 2.25899 -39.2341 -5.87393 6.44629 -1.33771 -15.6779 -0.756579 -9.59872 12.1348 -8.67765e-16 -5.506e-16 -1.27301e-14 
